<svg xmlns="http://www.w3.org/2000/svg" viewBox="222 240 556 546" width="1000" height="1300"><rect x="222" y="240" width="556" height="546" fill="#f5f5f5"/><g transform="translate(0 0)" opacity="0.60"><path d="M296 486 C296 604 396 664 500 664 C604 664 704 604 704 486 L704 472 C620 522 380 522 296 472 Z" fill="#e6e6e6" stroke="#c4c4c4" stroke-width="3"/><path d="M282 656 L718 656 L718 726 L282 726 Z" fill="#d0d0d0" stroke="#c4c4c4" stroke-width="3"/><path d="M312 470 L336 300 L360 306 L340 472 Z" fill="#e6e6e6" stroke="#c4c4c4" stroke-width="3"/><path d="M688 470 L664 300 L640 306 L660 472 Z" fill="#e6e6e6" stroke="#c4c4c4" stroke-width="3"/><path d="M498 520 L502 520 L502 662 L498 662 Z" fill="#ffffff" stroke="#c4c4c4" stroke-width="3"/></g></svg>
